<?xml version="1.0" encoding="UTF-8" standalone="no"?> <!-- Created with Vectornator for iOS (http://vectornator.io/) --><!DOCTYPE svg PUBLIC "-//W3C//DTD SVG 1.1//EN" "http://www.w3.org/Graphics/SVG/1.1/DTD/svg11.dtd">
<svg height="100%" style="fill-rule:nonzero;clip-rule:evenodd;stroke-linecap:round;stroke-linejoin:round;" xmlns:xlink="http://www.w3.org/1999/xlink" xmlns="http://www.w3.org/2000/svg" xml:space="preserve" width="100%" xmlns:vectornator="http://vectornator.io" version="1.1" viewBox="0 0 600 400">
<metadata>
<vectornator:setting key="DimensionsVisible" value="1"/>
<vectornator:setting key="PencilOnly" value="1"/>
<vectornator:setting key="SnapToPoints" value="0"/>
<vectornator:setting key="OutlineMode" value="0"/>
<vectornator:setting key="CMYKEnabledKey" value="0"/>
<vectornator:setting key="RulersVisible" value="1"/>
<vectornator:setting key="SnapToEdges" value="0"/>
<vectornator:setting key="GuidesVisible" value="1"/>
<vectornator:setting key="DisplayWhiteBackground" value="0"/>
<vectornator:setting key="doHistoryDisabled" value="0"/>
<vectornator:setting key="SnapToGuides" value="1"/>
<vectornator:setting key="TimeLapseWatermarkDisabled" value="0"/>
<vectornator:setting key="Units" value="Points"/>
<vectornator:setting key="DynamicGuides" value="0"/>
<vectornator:setting key="IsolateActiveLayer" value="0"/>
<vectornator:setting key="SnapToGrid" value="0"/>
</metadata>
<defs/>
<g id="Layer 2" vectornator:layerName="Layer 2">
<path d="M57.555+367.085C150.134+434.952+250.09+372.986+326.071+375.199C421.97+377.044+539.63+427.273+572.088+376.474C596.801+337.946+615.98+274.506+575.151+192.165C530.153+110.652+417.913+143.735+417.913+143.735C417.913+143.735+434.666+32.6072+210.886+32.6072C-12.8937+32.6072-46.0894+295.161+57.555+367.085Z" opacity="1" fill="#d0ded1"/>
<path d="M310.031+224.069C407.304+286.332+494.466+219.553+519.173+192.859C538.664+168.323+565.263+91.457+522.417+53.9515C444.047-17.3794+374.006+24.8621+345.285+43.2731C315.091+63.5252+222.439+125.359+310.031+224.069Z" opacity="1" fill="#ddcfde"/>
<path stroke="#000000" stroke-width="2" d="M256.909+105.834C270.954+89.0314+293.011+83.7737+306.175+94.0902C319.34+104.407+318.626+126.391+304.581+143.193C290.536+159.996+268.479+165.253+255.315+154.937C242.15+144.62+242.864+122.636+256.909+105.834Z" fill="#cba08f" stroke-linecap="round" opacity="1" stroke-linejoin="round"/>
<path stroke="#000000" stroke-width="2" d="M298.625+74.3125C287.715+74.8109+275.809+80.7798+267.031+91.2812C264.119+94.7649+261.948+98.5022+260.188+102.281C260.909+101.497+272.052+89.7719+294.75+93.5625C300.713+95.9617+307.503+107.083+309.812+113.531C313.598+124.099+311.649+131.706+311.656+131.812C312.686+130.773+313.759+129.805+314.719+128.656C328.764+111.854+329.477+89.879+316.312+79.5625C311.376+75.6938+305.171+74.0134+298.625+74.3125Z" fill="#3784ba" stroke-linecap="round" opacity="1" stroke-linejoin="round"/>
<path stroke="#000000" stroke-width="2" d="M270.269+141.23C270.269+141.23+262.607+138.015+259.742+133.248" fill="#cba08f" stroke-linecap="round" opacity="1" stroke-linejoin="round"/>
<path stroke="#000000" stroke-width="2" d="M289.232+89.3143L295.937+94.1374" fill="#cba08f" stroke-linecap="round" opacity="1" stroke-linejoin="round"/>
<path stroke="#000000" stroke-width="2" d="M317.183+97.0546C317.183+97.0546+313.351+88.9666+303.443+83.3555C293.699+77.8375+278.177+81.4536+278.177+81.4536" fill="#3784ba" stroke-linecap="round" opacity="1" stroke-linejoin="round"/>
<path stroke="#000000" stroke-width="2" d="M286.208+317.663C277.481+329.936+175.753+374.39+139.208+361.299C105.281+349.146+150.662+329.936+150.662+329.936C150.662+329.936+116.841+325.695+114.662+304.845C112.753+286.572+140.571+258.208+182.844+251.117C226.754+243.752+317.81+273.223+286.208+317.663Z" fill="#92ccfc" stroke-linecap="round" opacity="1" stroke-linejoin="round"/>
<path stroke="#000000" stroke-width="2" d="M370.656+137.346C278.106+194.938+271.598+180.251+252.674+174.085C233.128+167.716+226.644+145.727+208.958+148.635C194.748+150.97+135.549+203.873+128.523+225.92C118.409+257.656+167.045+274.617+167.045+274.617L180.612+252.57C180.612+252.57+156.3+237.788+156.627+231.25C156.869+226.404+205.808+180.13+205.808+180.13C205.808+180.13+197.609+188.658+189.334+208.718C181.339+228.1+183.277+263.957+183.277+263.957L248.449+270.256C248.449+270.256+267.436+227.943+296.751+210.984C340.966+185.405+357.497+180.122+384.956+158.596C424.204+127.827+400.264+118.922+370.656+137.346Z" fill="#9d88c0" stroke-linecap="round" opacity="1" stroke-linejoin="round"/>
<path stroke="#000000" stroke-width="2" d="M171.729+294.858C183.951+303.056+248.937+306.782+259.967+298.137C273.928+287.195+283.07+240.603+272.934+231.362C262.751+222.078+187.23+216.01+174.411+223.91C159.348+233.193+157.194+285.11+171.729+294.858Z" fill="#dedede" stroke-linecap="round" opacity="1" stroke-linejoin="round"/>
<path stroke="#000000" stroke-width="2" d="M232.75+263.11C232.275+270.122+225.745+277.568+215.46+276.674C208.109+276.035+202.046+270.265+202.344+263.408C202.642+256.552+207.11+248.295+218.739+247.758C228.428+247.311+233.346+254.316+232.75+263.11Z" fill="#ffffff" stroke-linecap="round" opacity="1" stroke-linejoin="round"/>
<path stroke="#000000" stroke-width="2" d="M225.165+311.664C194.455+309.238+161.402+325.039+147.875+331.2" fill="none" stroke-linecap="round" opacity="1" stroke-linejoin="round"/>
<path stroke="#000000" stroke-width="2" d="M275.437+119.415C276.673+117.5+277.565+115.773+278.16+114.252C281.809+104.939+274.366+103.337+266.923+113.57" fill="none" stroke-linecap="round" opacity="1" stroke-linejoin="round"/>
<path stroke="#000000" stroke-width="2" d="M294.413+129.516C295.649+127.601+296.54+125.874+297.136+124.353C300.784+115.04+293.342+113.438+285.899+123.671" fill="none" stroke-linecap="round" opacity="1" stroke-linejoin="round"/>
<path stroke="#000000" stroke-width="2" d="M443.881+106.48C463.933+130.505+407.56+143.369+406.803+113.857C406.216+90.9749+421.369+106.858+421.369+106.858C421.369+106.858+436.704+97.8814+443.881+106.48Z" fill="#cba08f" stroke-linecap="round" opacity="1" stroke-linejoin="round"/>
<path stroke="#000000" stroke-width="2" d="M419.793+51.0035C422.366+61.0798+418.186+69.0121+411.004+71.9064C404.111+74.6841+389.672+69.4409+389.029+58.2927C388.591+50.7057+396.613+41.1952+403.607+40.9272C410.602+40.6593+418.139+44.5231+419.793+51.0035Z" fill="#ffffff" stroke-linecap="round" opacity="1" stroke-linejoin="round"/>
<path stroke="#000000" stroke-width="2" d="M421.294+94.2028L411.968+72.0136" fill="#ffffff" stroke-linecap="round" opacity="1" stroke-linejoin="round"/>
<path stroke="#9dedec" stroke-width="2" d="M413.41+60.5297C416.676+56.6488+414.112+46.3941+404.786+46.7157" fill="none" stroke-linecap="round" opacity="1" stroke-linejoin="round"/>
<path stroke="#000000" stroke-width="2" d="M263.596+6.07656L250.866+21.7903C250.866+21.7903+251.357+47.6273+254.892+53.21C263.029+53.4822+283.54+48.7605+288.605+45.8123C289.357+37.013+287.442+9.45338+285.185+5.18928C284.54+1.35517+263.596+6.07656+263.596+6.07656Z" fill="#ffffff" stroke-linecap="round" opacity="1" stroke-linejoin="round"/>
<path stroke="#000000" stroke-width="2" d="M263.709+6.79426L266.202+18.5796L251.093+21.9414" fill="none" stroke-linecap="round" opacity="1" stroke-linejoin="round"/>
<path stroke="#000000" stroke-width="2" d="M276.93+22.508C276.93+22.508+266.353+22.8857+256.532+25.1144" fill="none" stroke-linecap="round" opacity="1" stroke-linejoin="round"/>
<path stroke="#000000" stroke-width="2" d="M269.942+29.5339C269.942+29.5339+262.425+29.7983+257.325+31.5358" fill="none" stroke-linecap="round" opacity="1" stroke-linejoin="round"/>
<path stroke="#000000" stroke-width="2" d="M275.985+35.4265C265.975+35.7287+257.59+38.0329+257.59+38.0329" fill="none" stroke-linecap="round" opacity="1" stroke-linejoin="round"/>
<path stroke="#000000" stroke-width="2" d="M145.173+57.9856C157.165+57.9856+170.78+51.9446+172.853+44.551C165.162+37.8797+151.033+20.8376+126.805+31.6151C123.342+33.9755+120.648+38.1273+116.771+42.2969C122.181+51.9446+133.181+57.9856+145.173+57.9856Z" fill="#ffffff" stroke-linecap="round" opacity="1" stroke-linejoin="round"/>
<path stroke="#000000" stroke-width="2" d="M155.812+44.0408C155.395+53.0229+142.76+54.5221+138.671+50.0695C131.012+41.2436+138.951+34.0919+143.939+32.8295C151.665+31.3869+156.145+36.8866+155.812+44.0408Z" fill="#c2997b" stroke-linecap="round" opacity="1" stroke-linejoin="round"/>
<path stroke="#000000" stroke-width="2" d="M142.558+42.6125C142.558+40.6455+144.052+39.0509+145.894+39.0509C147.737+39.0509+149.23+40.6455+149.23+42.6125C149.23+44.5794+147.737+46.174+145.894+46.174C144.052+46.174+142.558+44.5794+142.558+42.6125Z" fill="#000000" stroke-linecap="round" opacity="1" stroke-linejoin="round"/>
<path stroke="#725544" stroke-width="2" d="M382.261+313.891L388.625+308.275C388.625+308.275+440.933+341.068+435.917+346.084C431.175+350.826+382.261+313.891+382.261+313.891Z" fill="#9d7961" stroke-linecap="round" opacity="1" stroke-linejoin="round"/>
<path stroke="#000000" stroke-width="2" d="M352.267+269.303C338.9+258.055+333.535+274.011+349.733+292.113C354.074+296.964+368.662+309.901+385.899+306.493C406.43+302.435+431.407+277.779+431.407+277.779C431.407+277.779+433.202+251.217+424.153+260.745C407.158+278.639+389.514+272.155+385.928+284.463C371.079+263.874+367.068+281.758+352.267+269.303Z" fill="#ffffff" stroke-linecap="round" opacity="1" stroke-linejoin="round"/>
<path d="M353.935+292.303C383.259+308.525+379.016+315.513+412.707+293.801C431.735+281.539+441.157+262.231+430.301+266.224C419.445+270.217+385.63+296.796+385.63+296.796C385.63+296.796+355.152+275.645+343.578+273.087C332.005+270.529+333.43+280.96+353.935+292.303Z" opacity="1" fill="#2d3975"/>
<path stroke="#725544" stroke-width="2" d="M337.714+280.824C342.081+275.832+385.255+304.407+385.255+304.407C385.255+304.407+430.177+266.973+436.291+274.46C442.405+281.947+337.428+351.677+334.22+344.587C331.849+339.346+376.146+309.898+376.146+309.898C376.146+309.898+330.565+288.993+337.714+280.824Z" fill="#9d7961" stroke-linecap="round" opacity="1" stroke-linejoin="round"/>
</g>
</svg>
