<?xml version="1.0" encoding="UTF-8" standalone="no"?> <!-- Created with Vectornator for iOS (http://vectornator.io/) --><!DOCTYPE svg PUBLIC "-//W3C//DTD SVG 1.1//EN" "http://www.w3.org/Graphics/SVG/1.1/DTD/svg11.dtd">
<svg height="100%" style="fill-rule:nonzero;clip-rule:evenodd;stroke-linecap:round;stroke-linejoin:round;" xmlns:xlink="http://www.w3.org/1999/xlink" xmlns="http://www.w3.org/2000/svg" xml:space="preserve" width="100%" xmlns:vectornator="http://vectornator.io" version="1.1" viewBox="0 0 600 400">
<metadata>
<vectornator:setting key="DimensionsVisible" value="1"/>
<vectornator:setting key="PencilOnly" value="1"/>
<vectornator:setting key="SnapToPoints" value="0"/>
<vectornator:setting key="OutlineMode" value="0"/>
<vectornator:setting key="CMYKEnabledKey" value="0"/>
<vectornator:setting key="RulersVisible" value="1"/>
<vectornator:setting key="SnapToEdges" value="0"/>
<vectornator:setting key="GuidesVisible" value="1"/>
<vectornator:setting key="DisplayWhiteBackground" value="0"/>
<vectornator:setting key="doHistoryDisabled" value="0"/>
<vectornator:setting key="SnapToGuides" value="1"/>
<vectornator:setting key="TimeLapseWatermarkDisabled" value="0"/>
<vectornator:setting key="Units" value="Points"/>
<vectornator:setting key="DynamicGuides" value="0"/>
<vectornator:setting key="IsolateActiveLayer" value="0"/>
<vectornator:setting key="SnapToGrid" value="0"/>
</metadata>
<defs/>
<g id="Layer 2" vectornator:layerName="Layer 2">
<path stroke="#bdaf98" stroke-width="0.5" d="M191.252+103.893L166.057+213.252C166.057+213.252+165.708+215.402+164.452+216.392C163.195+217.382+161.03+217.212+161.03+217.212L83.864+217.212C83.864+217.212+81.5042+217.334+80.6685+216.283C79.8329+215.232+80.5215+213.009+80.5215+213.009L104.888+107.242C104.888+107.242+105.351+105.597+106.435+104.759C107.519+103.922+109.223+103.893+109.223+103.893L191.252+103.893Z" fill="#bdaf98" stroke-linecap="round" opacity="1" stroke-linejoin="round"/>
<path stroke="#bdaf98" stroke-width="0.5" d="M102.931+115.775L80.5231+212.913C80.5231+212.913+79.8594+215.158+80.6951+216.209C81.5307+217.26+83.8757+217.126+83.8757+217.126L161.042+217.126C161.042+217.125+163.195+217.285+164.452+216.295C165.709+215.304+166.057+213.171+166.057+213.171L188.522+115.775L102.931+115.775Z" fill="#ffffff" stroke-linecap="round" opacity="1" stroke-linejoin="round"/>
<path stroke="#bdaf98" stroke-width="0.5" d="M209.29+241.225L181.814+360.49C181.814+360.49+181.433+362.834+180.063+363.914C178.692+364.994+176.332+364.809+176.332+364.809L92.1755+364.809C92.1755+364.809+89.6019+364.941+88.6906+363.795C87.7792+362.649+88.5302+360.224+88.5302+360.224L115.104+244.877C115.104+244.877+115.609+243.083+116.791+242.17C117.973+241.257+119.832+241.225+119.832+241.225L209.29+241.225Z" fill="#ffffff" stroke-linecap="round" opacity="0" stroke-linejoin="round"/>
<path d="M340.554+289.657C338.743+290.549+336.747+292.686+335.718+294.516C334.689+296.347+337.26+306.937+337.26+306.937L378.588+356.834L390.18+352.298C390.18+352.298+371.484+324.527+358.793+309.928C370.723+315.328+429.476+313.959+431.386+295.203C434.455+265.071+364.63+277.795+340.554+289.657Z" opacity="1" fill="#e7e7e7"/>
<path d="M351.648+304.133C352.251+304.808+352.111+304.879+353.085+306.808C354.059+308.738+358.938+311.011+358.938+311.011C358.938+311.011+353.723+313.324+352.561+311.556C351.399+309.789+350.516+305.125+350.435+304.072C350.355+303.02+351.044+303.458+351.648+304.133Z" opacity="1" fill="#d5d5d5"/>
<path d="M415.269+271.336C415.269+271.336+379.371+276.488+376.473+277.131C373.575+277.775+358.891+287.432+351.707+289.717C342.353+292.797+345.85+293.068+352.933+292.585C358.548+292.203+396.298+298.89+410.303+295.147C411.422+294.848+365.314+311.672+366.771+310.599C369.102+308.88+417.716+319.556+427.098+311.405C431.03+307.989+415.269+271.336+415.269+271.336Z" opacity="1" fill="#ffffff"/>
</g>
<g id="Layer 1 copy" vectornator:layerName="Layer 1 copy">
<path stroke="#bdaf98" stroke-width="0.5" d="M175.835+20.2268C175.835+20.2268+163.591+20.4362+137.455+20.8555C119.801+20.7588+115.654+64.2241+107.219+95.9296L176.092+95.9296L175.835+20.2268Z" fill="#567a73" stroke-linecap="round" opacity="1" stroke-linejoin="round"/>
<path stroke="#bdaf98" stroke-width="0.5" d="M137.071+20.8713C218.899+19.5043+139.853+20.63+221.371+19.3818C244.623+19.5006+234.785+163.065+261.166+162.378C212.451+163.826+192.579+164.364+169.877+165.357C146.216+165.287+161.664+20.4845+137.071+20.8713Z" fill="#cfbb99" stroke-linecap="round" opacity="1" stroke-linejoin="round"/>
</g>
<g id="Layer 1" vectornator:layerName="Layer 1">
<path stroke="#bdaf98" stroke-width="0.5" d="M260.617+57.1439C260.617+57.1439+248.386+57.3644+222.25+57.7837C194.475+57.6316+200.13+165.412+169.926+165.353C247.179+165.551+260.998+165.503+260.998+165.503L260.617+57.1439Z" fill="#708d87" stroke-linecap="round" opacity="1" stroke-linejoin="round"/>
<path stroke="#bdaf98" stroke-width="0.5" d="M222.216+57.7771C304.043+56.4102+224.997+57.5358+306.515+56.2876C329.768+56.4064+319.93+199.971+346.31+199.284C297.595+200.732+277.723+201.27+255.022+202.263C231.36+202.193+246.808+57.3903+222.216+57.7771Z" fill="#e3d6c0" stroke-linecap="round" opacity="1" stroke-linejoin="round"/>
</g>
<g id="Layer 1 copy_2" vectornator:layerName="Layer 1 copy">
<path stroke="#bdaf98" stroke-width="0.5" d="M348.741+93.9232C348.741+93.9232+336.509+94.1437+310.373+94.563C282.598+94.411+288.254+202.192+258.049+202.133C335.302+202.33+349.122+202.283+349.122+202.283L348.741+93.9232Z" fill="#93ada8" stroke-linecap="round" opacity="1" stroke-linejoin="round"/>
<path stroke="#bdaf97" stroke-width="0.5" d="M310.339+94.5565C392.167+93.1895+313.12+94.3151+394.639+93.0669C417.891+93.1858+408.053+236.751+434.433+236.063C385.719+237.512+365.847+238.049+343.145+239.042C319.483+238.972+334.931+94.1696+310.339+94.5565Z" fill="#fcf1df" stroke-linecap="round" opacity="1" stroke-linejoin="round"/>
</g>
<g id="Layer ~neeeede 3 copy" vectornator:layerName="Layer ~neeeede 3 copy">
<path d="M483.979+259.223C457.814+253.887+431.392+275.039+424.978+306.484C418.565+337.93+434.593+367.74+460.759+373.077C486.924+378.413+513.323+357.256+519.736+325.811C526.149+294.365+510.144+264.559+483.979+259.223ZM480.798+274.82C499.453+278.625+510.879+299.864+506.307+322.284C501.734+344.704+482.897+359.801+464.242+355.996C445.587+352.191+434.167+330.924+438.739+308.504C443.312+286.083+462.143+271.015+480.798+274.82Z" opacity="1" fill="#1a1a1a"/>
<path d="M482.803+264.089C459.267+259.288+435.513+278.325+429.744+306.612C423.975+334.899+438.376+361.718+461.913+366.518C485.449+371.318+509.203+352.281+514.972+323.995C520.741+295.708+506.34+268.889+482.803+264.089ZM481.804+268.989C503.088+273.33+516.112+297.583+510.895+323.163C505.678+348.743+484.196+365.959+462.912+361.618C441.628+357.277+428.604+333.023+433.821+307.444C439.038+281.864+460.52+264.648+481.804+268.989Z" opacity="1" fill="#3d295f"/>
<path d="M409.656+223.88L406.345+216.725C406.345+216.725+404.904+215.324+403.877+213.592C402.607+211.449+402.931+212.02+401.637+208.217C401.02+205.012+402.432+198.373+404.919+198.349C407.406+198.325+408.909+207.626+411.306+208.082C413.056+208.457+412.253+202.635+414.451+202.319C415.958+202.103+415.135+203.856+415.228+204.218C415.578+205.566+413.831+210.418+414.203+213.979C414.417+216.023+416.386+217.981+416.386+217.981L409.656+223.88Z" opacity="1" fill="#dabaa9"/>
<path d="M367.719+228.65L365.674+223.882C365.674+223.882+359.757+219.014+359.303+217.132C359.111+216.338+357.405+213.037+357.183+211.77C356.833+209.775+356.595+205.101+358.155+203.903C360.68+201.572+359.026+209.198+362.46+213.113C363.413+213.334+365.733+215.407+366.165+216.055C367.915+216.431+366.566+207.405+368.764+207.089C370.272+206.873+370.018+208.859+370.112+209.221C370.462+210.569+371.894+215.188+372.267+218.749C372.481+220.793+374.449+222.751+374.449+222.751L367.719+228.65Z" opacity="1" fill="#dabaa9"/>
<path d="M445.643+258.951C454.878+258.572+483.035+239.785+483.035+239.785C483.035+239.785+493.39+230.703+486.496+222.115C479.603+213.528+469.122+222.72+469.122+222.72C469.122+222.72+451.13+235.484+445.101+240.926C441.191+235.71+424.995+218.45+415.03+212.888C411.459+213.307+407.14+215.532+405.24+218.678C412.893+230.193+436.407+259.33+445.643+258.951Z" opacity="1" fill="#e7e7e7"/>
<path d="M439.664+179.301C439.022+176.732+442.18+174.153+442.278+173.089C442.364+172.153+441.962+170.711+442.131+169.921C443.435+166.158+444.968+164.776+447.627+161.936C451.223+158.096+457.005+157.483+461.79+157.483C471.835+157.483+479.978+165.005+479.978+177.778C479.978+190.551+471.835+200.905+461.79+200.905C457.967+200.905+457.388+196.225+453.72+194.141C450.246+192.168+446.781+193.19+442.72+190.149C441.96+188.236+442.958+183.771+442.537+180.817C442.331+179.374+439.904+180.259+439.664+179.301Z" opacity="1" fill="#dabaa9"/>
<path d="M457.049+199.063L454.882+213.725C454.882+213.725+473.609+216.612+470.601+212.581C467.662+208.642+468.502+198.329+468.502+198.329L457.049+199.063Z" opacity="1" fill="#dabaa9"/>
<path d="M462.742+214.707C461.694+214.576+453.577+213.264+453.577+213.264C453.577+213.264+453.676+205.769+456.723+206.087C459.584+206.386+471.872+206.977+471.872+206.977L470.604+215.217C470.604+215.217+463.79+214.838+462.742+214.707Z" opacity="1" fill="#ffffff"/>
<path d="M462.121+195.817C463.519+197.125+455.025+219.858+439.02+220.496C437.907+218.669+436.653+205.063+438.212+199.94C439.772+194.816+441.078+192.511+444.598+188.335C445.724+186.974+445.739+186.672+446.306+186.046C446.336+184.001+442.263+183.505+441.183+180.738C442.939+178.878+448.332+181.443+449.736+182.323C451.725+179.402+452.068+177.763+452.096+177.597C454.893+184.992+456.951+190.983+462.121+195.817Z" opacity="1" fill="#fff2e2"/>
<path d="M442.084+189.167C442.178+190.37+441.133+192.962+441.133+192.962L444.361+189.191L442.532+186.019C442.532+186.019+441.99+187.964+442.084+189.167Z" opacity="1" fill="#fff2e2"/>
<path d="M444.088+168.498C445.261+171.874+445.624+171.576+445.274+173.756C444.332+172.41+441.692+170.367+442.15+168.902C443.092+166.599+443.307+167.285+444.088+168.498Z" opacity="1" fill="#fff2e2"/>
<path d="M435.488+309.877C435.488+309.877+455.13+365.868+453.244+367.513C452.907+370.236+381.772+375.039+381.772+375.039C381.772+375.039+352.229+375.411+352.95+373.495C354.166+370.264+367.405+368.04+367.405+368.04L351.016+312.906L435.488+309.877Z" opacity="1" fill="#474547"/>
<path d="M474.774+313.751L428.412+308.502C428.412+308.502+356.704+309.543+351.274+311.449C348.723+316.339+360.319+312.26+365.058+312.66C381.518+314.051+406.693+316.127+406.693+316.127L474.774+313.751Z" opacity="1" fill="#514c51"/>
<path d="M470.156+213.235C470.156+213.235+488.555+218.152+489.821+228.868C493.321+258.486+451.868+324.413+436.048+320.232C414.086+314.428+395.83+292.084+402.317+279.109C409.061+265.62+419.4+254.647+421.81+254.49C422.923+243.428+422.758+227.624+432.987+220.357C438.459+216.469+453.72+212.807+453.72+212.807L470.156+213.235Z" opacity="1" fill="#ffffff"/>
<path d="M484.037+192.342C488.231+177.017+482.052+162.966+479.507+160.572C478.109+158.885+475.998+154.373+470.945+151.909C467.683+150.319+464.374+151.261+463.629+151.109C459.561+150.273+450.012+145.919+450.043+150.925C450.074+155.93+446.985+158.464+450.649+172.569C454.313+186.673+460.87+199.2+469.982+199.484C479.094+199.767+482.083+199.484+484.037+192.342Z" opacity="1" fill="#072542"/>
<path d="M406.9+262.726C416.095+261.789+443.064+241.334+443.064+241.334C443.064+241.334+452.852+231.642+445.452+223.487C438.052+215.332+432.864+220.459+432.864+220.459C432.864+220.459+410.958+238.97+405.27+244.767C401.051+239.797+383.841+223.548+373.558+218.598C370.019+219.233+365.842+221.715+364.136+224.97C372.471+236.002+397.704+263.663+406.9+262.726Z" opacity="1" fill="#ffffff"/>
<path d="M107.453+109.212C107.957+107.592+109.535+106.642+110.978+107.091C112.421+107.54+113.183+109.217+112.679+110.837C112.175+112.457+110.597+113.406+109.154+112.957C107.711+112.509+106.949+110.832+107.453+109.212Z" opacity="1" fill="#ff7b7b"/>
<path d="M115.249+109.212C115.753+107.592+117.331+106.642+118.774+107.091C120.217+107.54+120.979+109.217+120.475+110.837C119.971+112.457+118.393+113.406+116.95+112.957C115.506+112.509+114.745+110.832+115.249+109.212Z" opacity="1" fill="#f5c379"/>
<path d="M123.045+109.212C123.548+107.592+125.127+106.642+126.57+107.091C128.013+107.54+128.774+109.217+128.271+110.837C127.767+112.457+126.189+113.406+124.745+112.957C123.302+112.509+122.541+110.832+123.045+109.212Z" opacity="1" fill="#a9ea72"/>
</g>
<g id="Layer ~neeeede 3" vectornator:layerName="Layer ~neeeede 3">
<path d="M491.388+225.437C487.702+222.903+478.127+221.523+467.441+221.178C449.945+220.613+429.467+222.825+426.966+227.297C422.803+234.741+403.617+326.324+403.617+326.324L471.465+324.286C471.465+324.286+500.731+231.86+491.388+225.437Z" opacity="1" fill="#514c51"/>
<path d="M416.445+267.791C390.28+262.454+363.857+283.606+357.444+315.052C351.03+346.498+367.059+376.308+393.224+381.644C419.389+386.981+445.788+365.824+452.201+334.378C458.615+302.932+442.61+273.127+416.445+267.791ZM413.264+283.387C431.919+287.192+443.345+308.431+438.772+330.852C434.2+353.272+415.363+368.368+396.708+364.563C378.052+360.759+366.632+339.491+371.205+317.071C375.777+294.651+394.608+279.583+413.264+283.387Z" opacity="1" fill="#313131"/>
<path d="M415.274+273.504C391.738+268.704+367.984+287.741+362.215+316.027C356.446+344.314+370.847+371.133+394.384+375.933C417.92+380.734+441.674+361.697+447.443+333.41C453.212+305.123+438.811+278.304+415.274+273.504ZM414.275+278.404C435.559+282.745+448.583+306.998+443.366+332.578C438.149+358.158+416.667+375.374+395.383+371.033C374.099+366.692+361.075+342.439+366.292+316.859C371.509+291.279+392.991+274.063+414.275+278.404Z" opacity="1" fill="#4b3571"/>
</g>
</svg>
