<?xml version="1.0" encoding="UTF-8" standalone="no"?> <!-- Created with Vectornator for iOS (http://vectornator.io/) --><!DOCTYPE svg PUBLIC "-//W3C//DTD SVG 1.1//EN" "http://www.w3.org/Graphics/SVG/1.1/DTD/svg11.dtd">
<svg height="100%" style="fill-rule:nonzero;clip-rule:evenodd;stroke-linecap:round;stroke-linejoin:round;" xmlns:xlink="http://www.w3.org/1999/xlink" xmlns="http://www.w3.org/2000/svg" xml:space="preserve" width="100%" xmlns:vectornator="http://vectornator.io" version="1.1" viewBox="0 0 600 400">
<metadata>
<vectornator:setting key="DimensionsVisible" value="1"/>
<vectornator:setting key="PencilOnly" value="1"/>
<vectornator:setting key="SnapToPoints" value="0"/>
<vectornator:setting key="OutlineMode" value="0"/>
<vectornator:setting key="CMYKEnabledKey" value="0"/>
<vectornator:setting key="RulersVisible" value="1"/>
<vectornator:setting key="SnapToEdges" value="0"/>
<vectornator:setting key="GuidesVisible" value="1"/>
<vectornator:setting key="DisplayWhiteBackground" value="0"/>
<vectornator:setting key="doHistoryDisabled" value="0"/>
<vectornator:setting key="SnapToGuides" value="1"/>
<vectornator:setting key="TimeLapseWatermarkDisabled" value="0"/>
<vectornator:setting key="Units" value="Points"/>
<vectornator:setting key="DynamicGuides" value="0"/>
<vectornator:setting key="IsolateActiveLayer" value="0"/>
<vectornator:setting key="SnapToGrid" value="0"/>
</metadata>
<defs>
<linearGradient y1="269.181" id="LinearGradient" x1="367.371" y2="240.443" x2="480.646" gradientUnits="userSpaceOnUse" gradientTransform="matrix(1 0 0 1 -0.0975881 11.3502)">
<stop stop-color="#a9afbc" offset="0"/>
<stop stop-color="#c6cddf" offset="0.995798"/>
</linearGradient>
<linearGradient y1="131.241" id="LinearGradient_2" x1="48.3451" y2="131.238" x2="53.3786" gradientUnits="userSpaceOnUse" gradientTransform="matrix(1 0 0 1 -41.4899 -23.2294)">
<stop stop-color="#181818" offset="0"/>
<stop stop-color="#565656" offset="1"/>
</linearGradient>
</defs>
<g id="Layer 1" vectornator:layerName="Layer 1">
<path d="M408.167+207.033C416.697+203.211+426.712+207.026+430.538+215.553C430.539+215.556+490.877+350.224+490.877+350.224L516.743+390.425L439.282+390.808L456.408+361.392C456.408+361.392+399.636+229.402+399.635+229.399C395.818+220.868+399.638+210.855+408.167+207.033Z" opacity="1" fill="#6983c5"/>
<path d="M383.316+130.448L385.675+129.676L401.173+153.891L386.374+158.737L383.316+130.448Z" opacity="1" fill="#90a5d9"/>
<path d="M395.329+148.84C365.171+156.38+346.827+186.942+354.351+217.1C354.353+217.11+385.756+342.702+385.756+342.702L389.281+345.799L492.328+320.152L495.017+315.382C495.017+315.382+463.614+189.79+463.612+189.78C456.056+159.63+425.487+141.299+395.329+148.84Z" opacity="1" fill="url(#LinearGradient)"/>
<path d="M421.5+207.283C412.97+203.461+402.955+207.277+399.129+215.803C399.128+215.806+338.791+350.474+338.791+350.474L312.924+390.675L390.385+391.058L373.259+361.642C373.259+361.642+430.031+229.652+430.033+229.649C433.849+221.118+430.03+211.105+421.5+207.283Z" opacity="1" fill="#4763ad"/>
<path d="M441.411+170.599C439.633+173.968+435.092+175.064+431.269+173.046C427.446+171.029+425.788+166.662+427.565+163.293C429.343+159.924+433.884+158.828+437.707+160.845C441.53+162.863+443.188+167.229+441.411+170.599Z" opacity="1" fill="#a0bbff"/>
<path d="M418.829+186.546C415.723+187.769+412.176+186.145+410.906+182.919C409.636+179.693+411.125+176.087+414.231+174.864C417.337+173.642+420.884+175.266+422.154+178.492C423.424+181.718+421.935+185.324+418.829+186.546Z" opacity="1" fill="#fff3f3"/>
<path d="M451.618+187.039C450.438+188.639+447.874+188.752+445.891+187.29C443.908+185.829+443.257+183.346+444.437+181.746C445.617+180.145+448.181+180.033+450.163+181.494C452.146+182.956+452.797+185.438+451.618+187.039Z" opacity="1" fill="#ffffff"/>
<path d="M442.911+123.937C442.911+123.937+410.687+51.5685+440.95+28.0349C471.213+4.50126+563.963+29.8024+563.963+29.8024C563.963+29.8024+583.004+84.5966+559.244+103.686C535.484+122.776+468.923+106.161+468.923+106.161L442.911+123.937Z" opacity="1" fill="#ffd087"/>
<path d="M18.3135+16.0231L99.1353+16.0231C105.464+16.0231+110.594+21.6306+110.594+28.5479L110.594+187.475C110.594+194.392+105.464+200+99.1353+200L18.3135+200C11.9853+200+6.85525+194.392+6.85525+187.475L6.85525+28.5479C6.85525+21.6306+11.9853+16.0231+18.3135+16.0231Z" opacity="1" fill="url(#LinearGradient_2)"/>
<path d="M22.8533+16.0231L100.181+16.0231C106.235+16.0231+111.144+21.6306+111.144+28.5479L111.144+187.475C111.144+194.392+106.235+200+100.181+200L22.8533+200C16.7986+200+11.8904+194.392+11.8904+187.475L11.8904+28.5479C11.8904+21.6306+16.7986+16.0231+22.8533+16.0231Z" opacity="1" fill="#565656"/>
<path d="M16.8447+36.4465L106.189+36.4465L106.189+179.577L16.8447+179.577L16.8447+36.4465Z" opacity="1" fill="#dfd1bb"/>
<path d="M50.475+25.1292L72.5591+25.1292C73.2983+25.1292+73.8976+25.7284+73.8976+26.4676L73.8976+26.4676C73.8976+27.2068+73.2983+27.806+72.5591+27.806L50.475+27.806C49.7358+27.806+49.1366+27.2068+49.1366+26.4676L49.1366+26.4676C49.1366+25.7284+49.7358+25.1292+50.475+25.1292Z" opacity="1" fill="#000000"/>
<g opacity="1">
<path d="M45.2595+62.213L49.7815+62.213L49.7815+57.919L45.6775+57.919C45.6015+52.713+42.3715+48.381+36.3295+48.419C30.4775+48.457+27.0575+52.599+25.4235+57.919L19.9895+57.919L19.9895+62.213L24.5115+62.213C24.3215+63.581+24.2455+64.987+24.2455+66.393C24.2455+76.197+28.6535+81.479+35.4175+81.555C40.6235+81.631+43.9295+78.971+43.9295+74.791C43.9295+71.447+42.7515+69.091+39.0275+68.483C42.4475+67.723+44.4615+65.595+45.2595+62.213ZM36.1015+52.523C39.2935+52.637+40.6615+54.651+40.8515+57.919L30.2875+57.919C31.3135+54.803+33.1375+52.485+36.1015+52.523ZM32.8335+66.393L29.1095+66.393C29.1095+65.025+29.1855+63.619+29.3755+62.213L40.4335+62.213C39.5595+64.911+37.3175+66.393+32.8335+66.393ZM39.1415+74.715C39.1415+76.881+37.6595+77.489+35.8355+77.375C32.1875+77.299+30.0595+74.943+29.3755+70.307L32.8335+70.307C37.8495+70.307+39.1415+72.549+39.1415+74.715Z" opacity="1" fill="#f7f7f7"/>
<path d="M77.6735+57.919L69.1235+57.919L69.1235+67.381L66.5015+67.381C66.1975+65.101+65.0955+63.239+63.1955+61.681C60.2315+61.149+57.8375+62.327+56.5455+64.265C56.9255+61.947+55.7855+58.679+53.2775+57.919L46.3235+57.919L46.3235+62.213L51.1495+62.213C53.2395+64.455+52.4035+67.001+50.0095+72.549L54.8735+74.791C57.6475+68.711+58.6355+66.507+60.9155+66.279C62.5875+68.065+62.3975+70.421+58.4075+76.919L63.2715+79.161C64.7915+76.311+65.7795+73.841+66.2355+71.675L69.1235+71.675L69.1235+81.783L73.9115+81.783L73.9115+62.213L77.6735+62.213L77.6735+57.919Z" opacity="1" fill="#f7f7f7"/>
<path d="M100.55+57.919L74.2535+57.919L74.2535+62.213L77.8255+62.213L80.0675+69.243C78.5095+70.611+77.3695+72.435+76.6475+74.639C78.2435+79.579+82.3475+82.505+88.0855+82.505C92.2275+82.505+95.4195+80.985+96.7495+79.351L96.7495+75.019C95.2675+76.691+92.3415+78.173+88.9215+78.173C85.7675+78.173+83.2595+76.919+82.0055+74.639C83.2215+72.321+85.1215+71.029+87.9715+71.029L96.8255+71.029L96.8255+62.213L100.55+62.213L100.55+57.919ZM91.9995+66.697L87.9715+66.697C86.6795+66.697+85.5015+66.849+84.4375+67.077L82.8795+62.213L91.9995+62.213L91.9995+66.697Z" opacity="1" fill="#f7f7f7"/>
</g>
<g opacity="1">
<path d="M39.2935+154.885C38.7615+155.835+38.4575+156.329+38.2675+156.329C38.0775+156.329+38.0775+155.797+38.0775+154.923L38.0775+143.029C38.0775+138.849+35.1515+136.113+30.5155+136.113C25.8795+136.113+22.7635+138.887+22.7635+143.257C22.7635+147.551+25.8795+150.667+30.5155+150.667C31.4275+150.667+32.3395+150.629+33.2895+150.553L33.2895+154.923C33.2895+158.229+34.7715+160.015+37.2795+160.015C38.5715+160.015+40.0915+159.559+41.8395+158.533L39.2935+154.885ZM30.4395+146.335C29.0335+146.335+27.5515+144.891+27.5515+143.485C27.5515+141.775+29.0335+140.293+30.4395+140.293C31.9215+140.217+33.3275+141.775+33.3275+143.485C33.3275+144.891+31.8075+146.335+30.4395+146.335Z" opacity="1" fill="#f7f7f7"/>
<path d="M62.9295+146.829C62.9295+139.571+58.9015+135.619+53.0495+135.619C50.7695+135.619+48.0715+136.151+46.2855+137.937L46.2855+142.535C47.9955+140.977+50.1235+139.913+52.7075+139.913C58.7115+139.913+58.4835+146.107+58.4835+146.677C58.4835+148.349+58.2175+149.489+57.9135+150.667C56.5835+148.387+54.5695+146.981+50.9975+146.981C46.0955+146.981+44.4615+149.717+44.4615+152.339C44.4615+155.835+47.3495+158.647+52.4795+158.647C53.7335+158.647+55.0635+158.419+56.3175+157.849C56.4315+158.571+56.4315+158.951+56.3555+159.825L59.6615+158.191C59.6995+157.279+59.6995+156.823+59.5095+155.835C61.8275+154.125+62.9295+150.629+62.9295+146.829ZM52.2515+154.505C50.4275+154.505+49.2115+153.631+49.2115+152.719C49.2115+152.035+49.7815+151.237+51.4535+151.237C53.1255+151.237+54.5695+152.149+55.4055+153.555C54.5695+154.049+53.3915+154.505+52.2515+154.505Z" opacity="1" fill="#f7f7f7"/>
<path d="M80.6755+147.589C81.6255+146.829+82.2335+145.537+82.2335+143.371C82.2335+139.419+78.9655+135.733+73.3035+135.733C70.3395+135.733+67.7555+136.683+66.2735+138.051L66.2735+142.611C67.6415+141.547+69.4275+140.027+72.6575+140.027C75.6215+140.027+77.9395+141.433+77.9395+143.827C77.9395+145.005+77.5595+145.423+75.8875+145.423L70.5675+145.423L70.5675+149.755L75.8875+149.755C77.6355+149.755+77.9395+150.363+77.9395+151.465C77.9395+153.897+75.6215+155.151+72.7335+155.151C69.4275+155.151+67.6415+153.441+66.2735+152.453L66.2735+157.013L67.4135+162.333L72.2775+162.333L71.6315+159.331C72.2015+159.407+72.7715+159.445+73.3795+159.445C78.7755+159.445+82.2335+155.987+82.2335+151.959C82.2335+149.793+81.5495+148.273+80.6755+147.589Z" opacity="1" fill="#f7f7f7"/>
</g>
<g opacity="1">
<path d="M470.963+52.0102L477.903+52.0102L474.489+41.2485L470.963+52.0102ZM471.316+34.9956L477.773+34.9956L487.459+62.3452L481.261+62.3452L479.499+56.7231L469.423+56.7231L467.531+62.3452L461.556+62.3452L471.316+34.9956Z" opacity="1" fill="#ffffff"/>
<path d="M496.476+39.7456L496.476+45.7759L503.193+45.7759C504.393+45.7759+505.367+45.5501+506.115+45.0986C506.864+44.6471+507.238+43.8462+507.238+42.6958C507.238+41.4217+506.743+40.5805+505.753+40.1723C504.9+39.8878+503.811+39.7456+502.488+39.7456L496.476+39.7456ZM496.476+50.3032L496.476+57.5952L503.193+57.5952C504.393+57.5952+505.327+57.4344+505.995+57.1128C507.207+56.519+507.813+55.381+507.813+53.6987C507.813+52.2762+507.225+51.299+506.05+50.7671C505.395+50.4702+504.473+50.3156+503.286+50.3032L496.476+50.3032ZM511.431+37.9087C512.272+39.0714+512.693+40.463+512.693+42.0835C512.693+43.7534+512.272+45.0955+511.431+46.1098C510.961+46.6789+510.268+47.1984+509.353+47.6684C510.751+48.1756+511.805+48.9796+512.517+50.0805C513.228+51.1815+513.584+52.5174+513.584+54.0884C513.584+55.7088+513.175+57.1623+512.359+58.4487C511.839+59.3022+511.19+60.0197+510.411+60.6011C509.532+61.269+508.496+61.7267+507.303+61.9741C506.109+62.2215+504.813+62.3452+503.416+62.3452L491.021+62.3452L491.021+34.9956L504.306+34.9956C507.658+35.0451+510.033+36.0161+511.431+37.9087Z" opacity="1" fill="#ffffff"/>
<path d="M521.024+37.853C523.251+35.6017+526.083+34.4761+529.522+34.4761C534.124+34.4761+537.488+35.9852+539.616+39.0034C540.791+40.6981+541.422+42.3989+541.508+44.1059L535.794+44.1059C535.422+42.7947+534.946+41.8052+534.365+41.1372C533.326+39.9497+531.786+39.3559+529.745+39.3559C527.667+39.3559+526.028+40.194+524.828+41.8701C523.628+43.5462+523.028+45.9181+523.028+48.9858C523.028+52.0535+523.662+54.3512+524.93+55.8789C526.198+57.4066+527.809+58.1704+529.763+58.1704C531.767+58.1704+533.295+57.5148+534.346+56.2036C534.928+55.4985+535.41+54.4409+535.794+53.0307L541.453+53.0307C540.958+56.0119+539.693+58.4363+537.658+60.3042C535.623+62.172+533.017+63.1059+529.837+63.1059C525.904+63.1059+522.811+61.8442+520.56+59.3208C518.309+56.785+517.183+53.3091+517.183+48.893C517.183+44.1183+518.463+40.4383+521.024+37.853Z" opacity="1" fill="#ffffff"/>
</g>
<g opacity="1">
<path d="M470.108+72.0262L464.674+72.0262L456.77+77.0042L459.848+81.2602L462.318+79.5882L464.712+77.9922L464.826+77.9922L464.864+96.2702L470.108+96.2702L470.108+72.0262Z" opacity="1" fill="#ffffff"/>
<path d="M493.385+92.0142L493.385+91.8622C493.917+91.5202+496.045+89.4682+496.387+89.3162C497.147+88.5562+499.237+86.2002+499.617+85.7442C501.859+83.0082+502.581+80.7282+502.581+78.1442C502.581+74.2302+499.731+71.6462+495.133+71.6462C489.851+71.6462+487.381+74.8762+487.001+78.4862L492.511+79.4362C492.549+77.7642+493.271+76.2062+494.791+76.2062C496.045+76.2062+496.919+76.9662+496.919+78.9422C496.919+80.0062+496.425+81.2602+495.285+82.8562C494.943+83.6542+489.395+89.5822+486.849+91.7102L487.837+96.2702L502.885+96.2702L502.885+92.0142L493.385+92.0142Z" opacity="1" fill="#ffffff"/>
<path d="M529.049+83.6542L529.049+83.5022C531.101+82.8182+532.697+80.9942+532.697+78.2582C532.697+73.7742+530.113+71.6462+524.983+71.6462C520.119+71.6462+517.459+74.6862+517.383+78.4482L522.627+78.9422C522.627+77.1562+523.539+76.1302+525.021+76.1302C526.617+76.1302+527.339+76.9662+527.339+78.7142C527.339+80.9562+526.351+81.7922+524.147+81.7922L522.513+81.7922L522.513+86.2382L524.185+86.2382C526.997+86.2382+528.213+87.3402+528.213+89.0122C528.213+91.0642+527.263+92.1662+525.401+92.1662C523.197+92.1662+522.095+90.3042+521.677+89.2022L516.547+91.4062C517.421+94.1042+520.119+96.5742+524.679+96.5742C530.113+96.5742+533.609+93.9142+533.609+88.7842C533.609+85.1742+531.367+83.8442+529.049+83.6542Z" opacity="1" fill="#ffffff"/>
</g>
<path stroke="#ffd087" stroke-width="2" d="M131.638+95.4422L383.907+125.616" fill="none" stroke-linecap="round" opacity="1" stroke-linejoin="round" stroke-dasharray="6"/>
<path stroke="#ffd087" stroke-width="2" d="M163.1+227.309L383.156+125.456" fill="none" stroke-linecap="round" opacity="1" stroke-linejoin="round" stroke-dasharray="6"/>
<path d="M70.0957+219.217C41.6203+190.741+41.6203+144.574+70.0957+116.098C98.5711+87.6227+144.739+87.6227+173.214+116.098C201.69+144.574+201.69+190.741+173.214+219.217C144.739+247.692+98.5711+247.692+70.0957+219.217Z" opacity="1" fill="#3a3a3a"/>
<path d="M77.2662+212.046C52.7509+187.531+52.7509+147.784+77.2662+123.269C101.781+98.7534+141.528+98.7534+166.044+123.269C190.559+147.784+190.559+187.531+166.044+212.046C141.528+236.561+101.781+236.561+77.2662+212.046Z" opacity="1" fill="#bcb5a9"/>
<path d="M82.3184+118.776C80.5807+120.177+78.8703+121.661+77.2559+123.276C74.887+125.645+72.8233+128.181+70.9122+130.807C83.4908+135.921+82.9747+151.865+82.9747+153.588C82.9747+159.616+82.0082+163.716+80.9122+167.963C76.6754+160.7+70.4856+155.921+60.2247+154.901C59.1805+159.949+58.7978+165.082+59.0059+170.213C64.4292+170.684+69.1054+173.733+71.8809+178.401C68.8822+180.173+64.659+181.79+60.5684+181.807C61.7187+186.796+63.4353+191.666+65.8184+196.307C68.9474+195.916+72.1144+195.255+75.1622+193.869C75.5732+196.472+75.5612+197.843+75.2872+200.994L87.2247+195.088C87.3617+191.8+87.3472+190.181+86.6622+186.619C95.0192+180.454+99.0059+167.851+99.0059+154.151C99.0059+136.939+92.6233+125.011+82.3184+118.776Z" opacity="1" fill="#ffffff"/>
<path d="M162.971+156.876C166.396+154.136+168.588+149.478+168.588+141.669C168.588+127.421+156.806+114.132+136.393+114.132C125.707+114.132+116.391+117.557+111.048+122.489L111.048+138.929C115.98+135.093+122.419+129.613+134.064+129.613C144.75+129.613+153.107+134.682+153.107+143.313C153.107+147.56+151.737+149.067+145.709+149.067L126.529+149.067L126.529+164.685L145.709+164.685C152.011+164.685+153.107+166.877+153.107+170.85C153.107+179.618+144.75+184.139+134.338+184.139C122.419+184.139+115.98+177.974+111.048+174.412L111.048+190.852L115.158+210.032L132.694+210.032L130.365+199.209C132.42+199.483+134.475+199.62+136.667+199.62C156.121+199.62+168.588+187.153+168.588+172.631C168.588+164.822+166.122+159.342+162.971+156.876Z" opacity="1" fill="#f7f7f7"/>
<path d="M155.979+225.433L155.979+225.433C160.764+222.356+167.138+223.741+170.215+228.526L239.338+336.024C242.416+340.81+241.031+347.184+236.245+350.261L236.245+350.261C231.46+353.338+225.086+351.953+222.009+347.168L152.886+239.669C149.809+234.884+151.193+228.51+155.979+225.433Z" opacity="1" fill="#3a3a3a"/>
<path d="M378.316+125.952C378.316+123.345+380.43+121.231+383.037+121.231C385.644+121.231+387.758+123.345+387.758+125.952C387.758+128.559+385.644+130.673+383.037+130.673C380.43+130.673+378.316+128.559+378.316+125.952Z" opacity="1" fill="#c87373"/>
</g>
</svg>
