<?xml version="1.0" encoding="UTF-8" standalone="no"?> <!-- Created with Vectornator for iOS (http://vectornator.io/) --><!DOCTYPE svg PUBLIC "-//W3C//DTD SVG 1.1//EN" "http://www.w3.org/Graphics/SVG/1.1/DTD/svg11.dtd">
<svg height="100%" style="fill-rule:nonzero;clip-rule:evenodd;stroke-linecap:round;stroke-linejoin:round;" xmlns:xlink="http://www.w3.org/1999/xlink" xmlns="http://www.w3.org/2000/svg" xml:space="preserve" width="100%" xmlns:vectornator="http://vectornator.io" version="1.1" viewBox="0 0 600 400">
<metadata>
<vectornator:setting key="DimensionsVisible" value="1"/>
<vectornator:setting key="PencilOnly" value="1"/>
<vectornator:setting key="SnapToPoints" value="0"/>
<vectornator:setting key="OutlineMode" value="0"/>
<vectornator:setting key="CMYKEnabledKey" value="0"/>
<vectornator:setting key="RulersVisible" value="1"/>
<vectornator:setting key="SnapToEdges" value="0"/>
<vectornator:setting key="GuidesVisible" value="1"/>
<vectornator:setting key="DisplayWhiteBackground" value="0"/>
<vectornator:setting key="doHistoryDisabled" value="0"/>
<vectornator:setting key="SnapToGuides" value="1"/>
<vectornator:setting key="TimeLapseWatermarkDisabled" value="0"/>
<vectornator:setting key="Units" value="Points"/>
<vectornator:setting key="DynamicGuides" value="0"/>
<vectornator:setting key="IsolateActiveLayer" value="0"/>
<vectornator:setting key="SnapToGrid" value="0"/>
</metadata>
<defs>
<linearGradient y1="94.738" id="LinearGradient" x1="549.462" y2="93.1387" x2="578.407" gradientUnits="userSpaceOnUse" gradientTransform="matrix(1 0 0 1 -7.24853 123.384)">
<stop stop-color="#dbdbdb" offset="0"/>
<stop stop-opacity="0" stop-color="#ececec" offset="1"/>
</linearGradient>
<linearGradient y1="216.457" id="LinearGradient_2" x1="70.9323" y2="55.3732" x2="240.02" gradientUnits="userSpaceOnUse" gradientTransform="matrix(1 0 0 1 -28.8271 -7.30827)">
<stop stop-color="#bec4d1" offset="0.0105042"/>
<stop stop-color="#fff8dd" offset="1"/>
</linearGradient>
<radialGradient cx="357.925" r="22.8335" id="RadialGradient" gradientUnits="userSpaceOnUse" gradientTransform="matrix(1 0 0 1 -3.7338 6.86128)" cy="194.924">
<stop stop-color="#91ffa7" offset="0.0105042"/>
<stop stop-color="#d2ffdb" offset="1"/>
</radialGradient>
</defs>
<g id="Layer 1" vectornator:layerName="Layer 1">
<g opacity="1">
<path d="M466.74+275.37C466.74+275.37+456.502+237.473+468.027+217.908C479.551+198.343+503.566+210.296+515.841+199.683C528.116+189.07+501.854+172.499+517.77+165.592C540.498+155.729+570.087+157.873+570.087+157.873L571.159+214.906C571.159+214.906+549.289+209.975+525.275+222.196C508.105+230.934+522.059+274.298+522.059+274.298L466.74+275.37Z" opacity="1" fill="url(#LinearGradient)"/>
<path d="M547.064+297.572C534.456+297.572+524.22+307.807+524.22+320.416L524.22+336.916C524.22+349.524+534.456+359.728+547.064+359.728C559.672+359.728+569.876+349.524+569.876+336.916L569.876+320.416C569.877+307.807+559.672+297.572+547.064+297.572ZM547.064+306.072C556.227+306.072+563.658+313.502+563.658+322.666L563.658+334.666C563.658+343.829+556.227+351.259+547.064+351.259C537.901+351.259+530.47+343.829+530.47+334.666L530.47+322.666C530.47+313.502+537.901+306.072+547.064+306.072Z" opacity="1" fill="#c8a473"/>
<path d="M467.068+271.699L518.898+271.699C530.426+271.699+539.772+281.045+539.772+292.573L539.772+364.747C539.772+376.276+530.426+385.621+518.898+385.621L467.068+385.621C455.539+385.621+446.193+376.276+446.193+364.747L446.193+292.573C446.193+281.045+455.539+271.699+467.068+271.699Z" opacity="1" fill="#c8a473"/>
</g>
</g>
<g id="Layer 4" vectornator:layerName="Layer 4">
<path d="M23.0286+127.896C23.0286+69.4071+70.4435+21.9921+128.933+21.9921C187.422+21.9921+234.837+69.4071+234.837+127.896C234.837+186.386+187.422+233.801+128.933+233.801C70.4435+233.801+23.0286+186.386+23.0286+127.896Z" opacity="1" fill="url(#LinearGradient_2)"/>
<path d="M37.837+166.23C37.837+143.565+66.8863+125.19+102.72+125.19C138.555+125.19+167.604+143.565+167.604+166.23C167.604+188.896+138.555+207.27+102.72+207.27C66.8863+207.27+37.837+188.896+37.837+166.23ZM52.1761+102.218C52.1761+81.3762+73.5888+64.4802+100.003+64.4802C126.417+64.4802+147.829+81.3762+147.829+102.218C147.829+123.061+126.417+139.957+100.003+139.957C73.5888+139.957+52.1761+123.061+52.1761+102.218ZM125.414+65.3894C125.414+54.9821+136.351+46.5452+149.843+46.5452C163.335+46.5452+174.272+54.9821+174.272+65.3894C174.272+75.7968+163.335+84.2337+149.843+84.2337C136.351+84.2337+125.414+75.7968+125.414+65.3894Z" fill-opacity="0.0869565" fill="#7f7f7f" opacity="1"/>
</g>
<g id="Layer 2" vectornator:layerName="Layer 2">
<path d="M207.969+92.2023L392.031+92.2023C403.56+92.2023+412.906+101.548+412.906+113.077L412.906+236.787C412.906+248.316+403.56+257.662+392.031+257.662L326.134+257.662C326.134+257.662+325.443+281.441+330.699+293.709C335.954+305.978+346.35+307.798+346.35+307.798L265.278+307.668C265.278+307.668+277.543+306.591+282.645+294.09C287.748+281.588+285.688+257.662+285.688+257.662L207.969+257.662C196.44+257.662+187.094+248.316+187.094+236.787L187.094+113.077C187.094+101.548+196.44+92.2023+207.969+92.2023Z" opacity="1" fill="#d5d6dd"/>
<path d="M215.096+105.783L384.904+105.783C391.492+105.783+396.833+111.124+396.833+117.712L396.833+228.609C396.833+235.197+391.492+240.537+384.904+240.537L215.096+240.537C208.508+240.537+203.167+235.197+203.167+228.609L203.167+117.712C203.167+111.124+208.508+105.783+215.096+105.783Z" opacity="1" fill="#ffffff"/>
<path d="M215.11+105.768C208.522+105.768+203.172+111.117+203.172+117.705L203.172+228.611C203.172+235.199+208.522+240.549+215.11+240.549L307.235+240.549L307.235+105.768L215.11+105.768Z" opacity="1" fill="#4b4c5e"/>
<path d="M211.889+114.291L252.032+114.291L252.032+230.512L211.889+230.512L211.889+114.291Z" opacity="1" fill="#757790"/>
<path d="M257.189+114.694L289.402+114.694L289.402+127.982L257.189+127.982L257.189+114.694Z" opacity="1" fill="#757790"/>
<path d="M259.202+164.826L285.576+164.826L285.576+176.906L259.202+176.906L259.202+164.826Z" opacity="1" fill="#757790"/>
<path d="M262.423+216.367L299.468+216.367L299.468+230.46L262.423+230.46L262.423+216.367Z" opacity="1" fill="#757790"/>
<path d="M337.157+135.556L371.224+135.556C378.73+135.556+384.815+141.641+384.815+149.147L384.815+149.147C384.815+156.653+378.73+162.737+371.224+162.737L337.157+162.737C329.651+162.737+323.567+156.653+323.567+149.147L323.567+149.147C323.567+141.641+329.651+135.556+337.157+135.556Z" opacity="1" fill="#757790"/>
<path d="M332.989+135.013C332.989+126.806+338.952+120.153+346.308+120.153C353.664+120.153+359.627+126.806+359.627+135.013C359.627+143.219+353.664+149.872+346.308+149.872C338.952+149.872+332.989+143.219+332.989+135.013Z" opacity="1" fill="#757790"/>
<path d="M347.667+130.031C347.667+120.875+355.134+113.453+364.344+113.453C373.554+113.453+381.021+120.875+381.021+130.031C381.021+139.187+373.554+146.61+364.344+146.61C355.134+146.61+347.667+139.187+347.667+130.031Z" opacity="1" fill="#757790"/>
<path d="M331.357+201.785C331.357+189.174+341.58+178.951+354.191+178.951C366.801+178.951+377.024+189.174+377.024+201.785C377.024+214.396+366.801+224.618+354.191+224.618C341.58+224.618+331.357+214.396+331.357+201.785Z" opacity="1" fill="url(#RadialGradient)"/>
<path d="M339.781+201.785C339.781+193.827+346.233+187.375+354.191+187.375C362.149+187.375+368.6+193.827+368.6+201.785C368.6+209.743+362.149+216.194+354.191+216.194C346.233+216.194+339.781+209.743+339.781+201.785Z" opacity="1" fill="#ffffff"/>
<path d="M354.252+201.409L327.655+202.076L339.943+223.142L354.252+201.409Z" opacity="1" fill="#ffffff"/>
<g opacity="1">
<path d="M351.593+198.438C351.593+198.094+351.472+197.801+351.23+197.559C350.988+197.317+350.695+197.196+350.351+197.196C350.007+197.196+349.714+197.317+349.472+197.559C349.23+197.801+349.109+198.094+349.109+198.438C349.109+198.782+349.23+199.075+349.472+199.317C349.714+199.559+350.007+199.68+350.351+199.68C350.695+199.68+350.988+199.559+351.23+199.317C351.472+199.075+351.593+198.782+351.593+198.438ZM350.351+201.344C349.549+201.344+348.864+201.061+348.296+200.493C347.729+199.925+347.445+199.24+347.445+198.438C347.445+197.636+347.729+196.951+348.296+196.383C348.864+195.816+349.549+195.532+350.351+195.532C351.153+195.532+351.838+195.816+352.406+196.383C352.973+196.951+353.257+197.636+353.257+198.438C353.257+199.24+352.975+199.925+352.41+200.493C351.844+201.061+351.158+201.344+350.351+201.344ZM357.945+202.883C357.601+202.883+357.308+203.005+357.066+203.247C356.824+203.489+356.703+203.782+356.703+204.126C356.703+204.469+356.824+204.762+357.066+205.005C357.308+205.247+357.601+205.368+357.945+205.368C358.288+205.368+358.581+205.247+358.824+205.005C359.066+204.762+359.187+204.469+359.187+204.126C359.187+203.782+359.066+203.489+358.824+203.247C358.581+203.005+358.288+202.883+357.945+202.883ZM357.945+207.032C357.143+207.032+356.458+206.748+355.89+206.18C355.322+205.613+355.038+204.928+355.038+204.126C355.038+203.318+355.322+202.632+355.89+202.067C356.458+201.502+357.143+201.219+357.945+201.219C358.747+201.219+359.432+201.503+359.999+202.071C360.567+202.639+360.851+203.324+360.851+204.126C360.851+204.928+360.567+205.613+359.999+206.18C359.432+206.748+358.747+207.032+357.945+207.032ZM356.703+195.477L357.89+195.477L351.578+207.102L350.367+207.102L356.703+195.477Z" opacity="1" fill="#ececec"/>
</g>
</g>
<g id="Layer 3" vectornator:layerName="Layer 3">
<path d="M255.205+307.345L379.639+307.345C390.5+307.345+388.573+310.452+386.633+314.435L386.225+338.943C389.39+347.01+390.5+346.676+379.639+346.676L255.205+346.676C244.344+346.676+235.54+337.871+235.54+327.01L235.54+327.01C235.54+316.149+244.344+307.345+255.205+307.345Z" opacity="1" fill="#c87373"/>
<path d="M258.255+312.494L387.144+312.903C390.718+312.903+389.492+341.598+386.531+341.598L258.255+342.21C249.184+342.21+241.831+335.558+241.831+327.352L241.831+327.352C241.831+319.146+249.184+312.494+258.255+312.494Z" opacity="1" fill="#dfd8cc"/>
<path d="M240.405+346.289L386.669+346.289C399.436+346.289+397.172+349.396+394.891+353.379L394.411+377.887C398.132+385.954+399.436+385.62+386.669+385.62L240.405+385.62C227.639+385.62+217.29+376.815+217.29+365.954L217.29+365.954C217.29+355.093+227.639+346.289+240.405+346.289Z" opacity="1" fill="#606986"/>
<path d="M243.99+351.438L395.491+351.847C399.692+351.847+398.252+380.542+394.771+380.542L243.99+381.154C233.328+381.154+224.685+374.502+224.685+366.296L224.685+366.296C224.685+358.09+233.328+351.438+243.99+351.438Z" opacity="1" fill="#dfd8cc"/>
</g>
</svg>
